<svg id="Layer_1" height="512" viewBox="0 0 512 512" width="512" xmlns="http://www.w3.org/2000/svg" data-name="Layer 1"><path d="m421.938 90.068c-77.266-77.261-196.126-88.942-286.495-34.968l1.557-8.657a21.337 21.337 0 0 0 -42-7.552l-11.385 63.286a21.342 21.342 0 0 0 14.25 24.016l55.3 18.437a21.335 21.335 0 0 0 13.5-40.479l-19.12-6.374c74.69-51.138 178.078-43.679 244.224 22.457 74.854 74.86 74.854 196.672 0 271.532-74.875 74.864-196.667 74.864-271.542 0a192.586 192.586 0 0 1 -44.125-203 21.334 21.334 0 1 0 -39.979-14.907 234.734 234.734 0 0 0 385.815 248.073c91.489-91.494 91.489-240.37 0-331.864z"/><path d="m192 362.667a21.334 21.334 0 0 0 21.333-21.334v-149.333a21.336 21.336 0 0 0 -32.312-18.292l-53.333 32a21.334 21.334 0 0 0 21.958 36.584l21.021-12.615v111.656a21.334 21.334 0 0 0 21.333 21.334z"/><path d="m309.333 362.667c41.865 0 74.667-42.167 74.667-96s-32.8-96-74.667-96-74.666 42.166-74.666 96 32.802 96 74.666 96zm0-149.334c15.136 0 32 21.9 32 53.334s-16.864 53.333-32 53.333-32-21.9-32-53.333 16.867-53.334 32-53.334z"/></svg>